<svg xmlns="http://www.w3.org/2000/svg" width="810" viewBox="0 0 810 810" height="810" version="1.0"><g fill="#FFF"><g><g><path d="M 51.765625 0 L 30.3125 0 L 30.3125 -83.3125 L 2.84375 -83.3125 L 2.84375 -101.171875 L 79.234375 -101.171875 L 79.234375 -83.3125 L 51.765625 -83.3125 Z M 51.765625 0" transform="translate(6.984 459.912)"/></g></g></g><g fill="#FFF"><g><g><path d="M 43.109375 -63.796875 C 38.640625 -63.796875 35.132812 -62.378906 32.59375 -59.546875 C 30.050781 -56.710938 28.597656 -52.6875 28.234375 -47.46875 L 57.84375 -47.46875 C 57.757812 -52.6875 56.398438 -56.710938 53.765625 -59.546875 C 51.140625 -62.378906 47.585938 -63.796875 43.109375 -63.796875 Z M 46.09375 1.390625 C 33.632812 1.390625 23.894531 -2.046875 16.875 -8.921875 C 9.863281 -15.796875 6.359375 -25.53125 6.359375 -38.125 C 6.359375 -51.09375 9.597656 -61.113281 16.078125 -68.1875 C 22.566406 -75.269531 31.53125 -78.8125 42.96875 -78.8125 C 53.90625 -78.8125 62.414062 -75.695312 68.5 -69.46875 C 74.59375 -63.25 77.640625 -54.648438 77.640625 -43.671875 L 77.640625 -33.421875 L 27.75 -33.421875 C 27.976562 -27.421875 29.753906 -22.738281 33.078125 -19.375 C 36.398438 -16.007812 41.0625 -14.328125 47.0625 -14.328125 C 51.71875 -14.328125 56.117188 -14.8125 60.265625 -15.78125 C 64.421875 -16.75 68.757812 -18.289062 73.28125 -20.40625 L 73.28125 -4.078125 C 69.59375 -2.234375 65.648438 -0.863281 61.453125 0.03125 C 57.253906 0.9375 52.132812 1.390625 46.09375 1.390625 Z M 46.09375 1.390625" transform="translate(89.045 459.912)"/></g></g></g><g fill="#FFF"><g><g><path d="M 80.34375 0 L 59.234375 0 L 59.234375 -45.1875 C 59.234375 -50.769531 58.296875 -54.957031 56.421875 -57.75 C 54.554688 -60.539062 51.617188 -61.9375 47.609375 -61.9375 C 42.210938 -61.9375 38.289062 -59.953125 35.84375 -55.984375 C 33.394531 -52.015625 32.171875 -45.488281 32.171875 -36.40625 L 32.171875 0 L 11.078125 0 L 11.078125 -77.359375 L 27.1875 -77.359375 L 30.03125 -67.46875 L 31.203125 -67.46875 C 33.285156 -71.019531 36.285156 -73.796875 40.203125 -75.796875 C 44.128906 -77.804688 48.628906 -78.8125 53.703125 -78.8125 C 65.273438 -78.8125 73.113281 -75.03125 77.21875 -67.46875 L 79.09375 -67.46875 C 81.164062 -71.0625 84.21875 -73.847656 88.25 -75.828125 C 92.289062 -77.816406 96.847656 -78.8125 101.921875 -78.8125 C 110.691406 -78.8125 117.328125 -76.5625 121.828125 -72.0625 C 126.328125 -67.570312 128.578125 -60.367188 128.578125 -50.453125 L 128.578125 0 L 107.390625 0 L 107.390625 -45.1875 C 107.390625 -50.769531 106.457031 -54.957031 104.59375 -57.75 C 102.726562 -60.539062 99.785156 -61.9375 95.765625 -61.9375 C 90.597656 -61.9375 86.734375 -60.085938 84.171875 -56.390625 C 81.617188 -52.703125 80.34375 -46.847656 80.34375 -38.828125 Z M 80.34375 0" transform="translate(172.766 459.912)"/></g></g></g><g fill="#FFF"><g><g><path d="M 53.5625 1.390625 C 44.46875 1.390625 37.335938 -1.910156 32.171875 -8.515625 L 31.0625 -8.515625 C 31.800781 -2.054688 32.171875 1.679688 32.171875 2.703125 L 32.171875 34.046875 L 11.078125 34.046875 L 11.078125 -77.359375 L 28.234375 -77.359375 L 31.203125 -67.328125 L 32.171875 -67.328125 C 37.109375 -74.984375 44.421875 -78.8125 54.109375 -78.8125 C 63.242188 -78.8125 70.394531 -75.28125 75.5625 -68.21875 C 80.726562 -61.164062 83.3125 -51.367188 83.3125 -38.828125 C 83.3125 -30.566406 82.097656 -23.390625 79.671875 -17.296875 C 77.253906 -11.210938 73.804688 -6.578125 69.328125 -3.390625 C 64.859375 -0.203125 59.601562 1.390625 53.5625 1.390625 Z M 47.328125 -61.9375 C 42.117188 -61.9375 38.3125 -60.332031 35.90625 -57.125 C 33.507812 -53.914062 32.265625 -48.625 32.171875 -41.25 L 32.171875 -38.953125 C 32.171875 -30.648438 33.40625 -24.695312 35.875 -21.09375 C 38.34375 -17.5 42.253906 -15.703125 47.609375 -15.703125 C 57.066406 -15.703125 61.796875 -23.5 61.796875 -39.09375 C 61.796875 -46.707031 60.628906 -52.414062 58.296875 -56.21875 C 55.972656 -60.03125 52.316406 -61.9375 47.328125 -61.9375 Z M 47.328125 -61.9375" transform="translate(311.909 459.912)"/></g></g></g><g fill="#FFF"><g><g><path d="M 43.109375 -63.796875 C 38.640625 -63.796875 35.132812 -62.378906 32.59375 -59.546875 C 30.050781 -56.710938 28.597656 -52.6875 28.234375 -47.46875 L 57.84375 -47.46875 C 57.757812 -52.6875 56.398438 -56.710938 53.765625 -59.546875 C 51.140625 -62.378906 47.585938 -63.796875 43.109375 -63.796875 Z M 46.09375 1.390625 C 33.632812 1.390625 23.894531 -2.046875 16.875 -8.921875 C 9.863281 -15.796875 6.359375 -25.53125 6.359375 -38.125 C 6.359375 -51.09375 9.597656 -61.113281 16.078125 -68.1875 C 22.566406 -75.269531 31.53125 -78.8125 42.96875 -78.8125 C 53.90625 -78.8125 62.414062 -75.695312 68.5 -69.46875 C 74.59375 -63.25 77.640625 -54.648438 77.640625 -43.671875 L 77.640625 -33.421875 L 27.75 -33.421875 C 27.976562 -27.421875 29.753906 -22.738281 33.078125 -19.375 C 36.398438 -16.007812 41.0625 -14.328125 47.0625 -14.328125 C 51.71875 -14.328125 56.117188 -14.8125 60.265625 -15.78125 C 64.421875 -16.75 68.757812 -18.289062 73.28125 -20.40625 L 73.28125 -4.078125 C 69.59375 -2.234375 65.648438 -0.863281 61.453125 0.03125 C 57.253906 0.9375 52.132812 1.390625 46.09375 1.390625 Z M 46.09375 1.390625" transform="translate(401.58 459.912)"/></g></g></g><g fill="#FFF"><g><g><path d="M 65.046875 -22.96875 C 65.046875 -15.039062 62.289062 -9 56.78125 -4.84375 C 51.269531 -0.6875 43.019531 1.390625 32.03125 1.390625 C 26.40625 1.390625 21.609375 1.003906 17.640625 0.234375 C 13.671875 -0.523438 9.957031 -1.640625 6.5 -3.109375 L 6.5 -20.546875 C 10.425781 -18.703125 14.84375 -17.15625 19.75 -15.90625 C 24.664062 -14.664062 28.992188 -14.046875 32.734375 -14.046875 C 40.390625 -14.046875 44.21875 -16.257812 44.21875 -20.6875 C 44.21875 -22.351562 43.707031 -23.703125 42.6875 -24.734375 C 41.675781 -25.773438 39.925781 -26.953125 37.4375 -28.265625 C 34.945312 -29.578125 31.625 -31.113281 27.46875 -32.875 C 21.519531 -35.363281 17.148438 -37.664062 14.359375 -39.78125 C 11.566406 -41.90625 9.535156 -44.335938 8.265625 -47.078125 C 6.992188 -49.828125 6.359375 -53.210938 6.359375 -57.234375 C 6.359375 -64.097656 9.019531 -69.410156 14.34375 -73.171875 C 19.675781 -76.929688 27.234375 -78.8125 37.015625 -78.8125 C 46.335938 -78.8125 55.40625 -76.785156 64.21875 -72.734375 L 57.84375 -57.5 C 53.96875 -59.164062 50.347656 -60.523438 46.984375 -61.578125 C 43.617188 -62.640625 40.179688 -63.171875 36.671875 -63.171875 C 30.441406 -63.171875 27.328125 -61.488281 27.328125 -58.125 C 27.328125 -56.238281 28.332031 -54.601562 30.34375 -53.21875 C 32.351562 -51.832031 36.75 -49.78125 43.53125 -47.0625 C 49.570312 -44.613281 54 -42.328125 56.8125 -40.203125 C 59.625 -38.078125 61.695312 -35.628906 63.03125 -32.859375 C 64.375 -30.097656 65.046875 -26.800781 65.046875 -22.96875 Z M 65.046875 -22.96875" transform="translate(485.302 459.912)"/></g></g></g><g fill="#FFF"><g><g><path d="M 43.671875 -15.4375 C 47.359375 -15.4375 51.785156 -16.242188 56.953125 -17.859375 L 56.953125 -2.140625 C 51.691406 0.210938 45.234375 1.390625 37.578125 1.390625 C 29.128906 1.390625 22.976562 -0.742188 19.125 -5.015625 C 15.28125 -9.285156 13.359375 -15.6875 13.359375 -24.21875 L 13.359375 -61.515625 L 3.25 -61.515625 L 3.25 -70.4375 L 14.875 -77.5 L 20.96875 -93.828125 L 34.453125 -93.828125 L 34.453125 -77.359375 L 56.125 -77.359375 L 56.125 -61.515625 L 34.453125 -61.515625 L 34.453125 -24.21875 C 34.453125 -21.21875 35.296875 -19.003906 36.984375 -17.578125 C 38.671875 -16.148438 40.898438 -15.4375 43.671875 -15.4375 Z M 43.671875 -15.4375" transform="translate(555.738 459.912)"/></g></g></g><g fill="#FFF"><g><g><path d="M 60.203125 0 L 56.125 -10.515625 L 55.5625 -10.515625 C 52.007812 -6.046875 48.351562 -2.941406 44.59375 -1.203125 C 40.832031 0.523438 35.929688 1.390625 29.890625 1.390625 C 22.460938 1.390625 16.613281 -0.726562 12.34375 -4.96875 C 8.082031 -9.21875 5.953125 -15.265625 5.953125 -23.109375 C 5.953125 -31.328125 8.820312 -37.382812 14.5625 -41.28125 C 20.3125 -45.175781 28.972656 -47.332031 40.546875 -47.75 L 53.96875 -48.15625 L 53.96875 -51.546875 C 53.96875 -59.390625 49.957031 -63.3125 41.9375 -63.3125 C 35.75 -63.3125 28.484375 -61.445312 20.140625 -57.71875 L 13.140625 -71.96875 C 22.046875 -76.625 31.921875 -78.953125 42.765625 -78.953125 C 53.140625 -78.953125 61.09375 -76.691406 66.625 -72.171875 C 72.164062 -67.648438 74.9375 -60.773438 74.9375 -51.546875 L 74.9375 0 Z M 53.96875 -35.84375 L 45.8125 -35.5625 C 39.675781 -35.382812 35.109375 -34.28125 32.109375 -32.25 C 29.109375 -30.21875 27.609375 -27.125 27.609375 -22.96875 C 27.609375 -17.019531 31.023438 -14.046875 37.859375 -14.046875 C 42.742188 -14.046875 46.648438 -15.453125 49.578125 -18.265625 C 52.503906 -21.078125 53.96875 -24.816406 53.96875 -29.484375 Z M 53.96875 -35.84375" transform="translate(617.249 459.912)"/></g></g></g><g fill="#FFF"><g><g><path d="M 65.046875 -22.96875 C 65.046875 -15.039062 62.289062 -9 56.78125 -4.84375 C 51.269531 -0.6875 43.019531 1.390625 32.03125 1.390625 C 26.40625 1.390625 21.609375 1.003906 17.640625 0.234375 C 13.671875 -0.523438 9.957031 -1.640625 6.5 -3.109375 L 6.5 -20.546875 C 10.425781 -18.703125 14.84375 -17.15625 19.75 -15.90625 C 24.664062 -14.664062 28.992188 -14.046875 32.734375 -14.046875 C 40.390625 -14.046875 44.21875 -16.257812 44.21875 -20.6875 C 44.21875 -22.351562 43.707031 -23.703125 42.6875 -24.734375 C 41.675781 -25.773438 39.925781 -26.953125 37.4375 -28.265625 C 34.945312 -29.578125 31.625 -31.113281 27.46875 -32.875 C 21.519531 -35.363281 17.148438 -37.664062 14.359375 -39.78125 C 11.566406 -41.90625 9.535156 -44.335938 8.265625 -47.078125 C 6.992188 -49.828125 6.359375 -53.210938 6.359375 -57.234375 C 6.359375 -64.097656 9.019531 -69.410156 14.34375 -73.171875 C 19.675781 -76.929688 27.234375 -78.8125 37.015625 -78.8125 C 46.335938 -78.8125 55.40625 -76.785156 64.21875 -72.734375 L 57.84375 -57.5 C 53.96875 -59.164062 50.347656 -60.523438 46.984375 -61.578125 C 43.617188 -62.640625 40.179688 -63.171875 36.671875 -63.171875 C 30.441406 -63.171875 27.328125 -61.488281 27.328125 -58.125 C 27.328125 -56.238281 28.332031 -54.601562 30.34375 -53.21875 C 32.351562 -51.832031 36.75 -49.78125 43.53125 -47.0625 C 49.570312 -44.613281 54 -42.328125 56.8125 -40.203125 C 59.625 -38.078125 61.695312 -35.628906 63.03125 -32.859375 C 64.375 -30.097656 65.046875 -26.800781 65.046875 -22.96875 Z M 65.046875 -22.96875" transform="translate(702.838 459.912)"/></g></g></g><g fill="#FFF"><g><g><path d="M 8.09375 -9.890625 C 8.09375 -13.765625 9.128906 -16.691406 11.203125 -18.671875 C 13.285156 -20.660156 16.3125 -21.65625 20.28125 -21.65625 C 24.101562 -21.65625 27.0625 -20.640625 29.15625 -18.609375 C 31.257812 -16.578125 32.3125 -13.671875 32.3125 -9.890625 C 32.3125 -6.242188 31.25 -3.367188 29.125 -1.265625 C 27.007812 0.828125 24.0625 1.875 20.28125 1.875 C 16.40625 1.875 13.40625 0.847656 11.28125 -1.203125 C 9.15625 -3.265625 8.09375 -6.160156 8.09375 -9.890625 Z M 8.09375 -9.890625" transform="translate(773.274 459.912)"/></g></g></g></svg>